<?xml version="1.0" encoding="utf-8"?>
<!-- Generator: Adobe Illustrator 28.3.0, SVG Export Plug-In . SVG Version: 6.00 Build 0)  -->
<svg version="1.1" xmlns="http://www.w3.org/2000/svg" xmlns:xlink="http://www.w3.org/1999/xlink" x="0px" y="0px"
	 viewBox="0 0 400 400" style="enable-background:new 0 0 400 400;" xml:space="preserve">
<style type="text/css">
	.st0{display:none;}
	.st1{display:inline;fill:#FF00FF;}
	.st2{display:inline;fill:#F06EF4;}
</style>
<g id="Layer_2" class="st0">
</g>
<g id="Layer_1">
	<g>
		<g>
			<path d="M204.86,89.79c-1.3-1.3-3.03-2.01-4.86-2.01s-3.56,0.72-4.86,2.01L52,232.92c-2,2-2.58,4.88-1.49,7.49
				c1.08,2.62,3.52,4.25,6.35,4.25h26.09c1.84,0,3.56-0.72,4.86-2.01l90.26-90.26c0.83-0.83,1.75-1.01,2.37-1.01
				c1.69,0,3.45,1.28,3.45,3.42v31.07c0,0.91-0.35,1.77-1,2.41l-87.15,87.15c-2,2-2.58,4.88-1.49,7.49
				c1.09,2.62,3.52,4.25,6.35,4.25h26.09c1.84,0,3.56-0.72,4.86-2.01l46.51-46.51c0.83-0.83,1.75-1.01,2.37-1.01
				c1.69,0,3.45,1.28,3.45,3.42v39.24c0,3.79,3.09,6.88,6.88,6.88h18.45c3.79,0,6.88-3.09,6.88-6.88v-39.24
				c0-2.14,1.75-3.42,3.45-3.42c0.62,0,1.54,0.18,2.37,1.01l46.51,46.51c1.3,1.3,3.03,2.01,4.86,2.01h26.09
				c2.83,0,5.27-1.63,6.35-4.25c1.08-2.62,0.51-5.49-1.49-7.49l-87.15-87.15c-0.64-0.64-1-1.5-1-2.41V154.8
				c0-2.14,1.75-3.42,3.45-3.42c0.62,0,1.54,0.18,2.37,1.01l90.26,90.26c1.3,1.3,3.03,2.01,4.86,2.01h26.09
				c2.83,0,5.27-1.63,6.35-4.25c1.08-2.62,0.51-5.49-1.49-7.49L204.86,89.79z"/>
			<path d="M390.43,190.05L204.86,4.47c-1.3-1.3-3.03-2.01-4.86-2.01s-3.56,0.72-4.86,2.01L9.57,190.05c-2,2-2.58,4.88-1.49,7.5
				c1.08,2.62,3.52,4.25,6.35,4.25h26.09c1.84,0,3.56-0.72,4.86-2.01l152.21-152.2c0.64-0.64,1.5-1,2.41-1s1.77,0.35,2.41,1
				l152.2,152.2c1.3,1.3,3.03,2.01,4.86,2.01h26.09c2.83,0,5.27-1.63,6.35-4.25C393.01,194.92,392.44,192.05,390.43,190.05z"/>
			<path d="M268.87,314.92h-26.09c-1.84,0-3.56,0.72-4.86,2.01l-35.5,35.5c-0.64,0.64-1.5,1-2.41,1s-1.77-0.35-2.41-1l-35.5-35.5
				c-1.3-1.3-3.02-2.01-4.86-2.01h-26.09c-2.83,0-5.27,1.63-6.35,4.25c-1.08,2.62-0.51,5.49,1.49,7.49l68.87,68.87
				c1.3,1.3,3.03,2.01,4.86,2.01s3.56-0.72,4.86-2.01l68.86-68.87c2-2,2.58-4.88,1.49-7.49S271.7,314.92,268.87,314.92z"/>
		</g>
	</g>
</g>
</svg>
